# xmcd
# Copyright (C) 1995-1998 Ti Kan
#
# Track frame offsets:
#       150
#       75451
#       140814
#       209561
#
# Disc length: 3936 seconds
#
# Revision: 0
# Processed by: cddbd v1.5.2PL0 Copyright (c) Steve Scherf et al.
# Submitted via: CD-Transfer v1.0
#
DISCID=360f5e04
DTITLE=Friday Night Life Mixed By Dj René - 
DYEAR=1900
DGENRE=
TTITLE0=House
TTITLE1=Hip Hop
TTITLE2=90ies
TTITLE3=Pop
EXTD=
EXTT0=
EXTT1=
EXTT2=
EXTT3=
PLAYORDER=
